<?xml version="1.0" encoding="UTF-8" standalone="no"?>
<svg
   version="1.1"
   id="Layer_1"
   x="0px"
   y="0px"
   width="100%"
   viewBox="0 0 2048 2048"
   xml:space="preserve"
   sodipodi:docname="fisher.svg"
   inkscape:version="1.2.2 (b0a84865, 2022-12-01)"
   xmlns:inkscape="http://www.inkscape.org/namespaces/inkscape"
   xmlns:sodipodi="http://sodipodi.sourceforge.net/DTD/sodipodi-0.dtd"
   xmlns="http://www.w3.org/2000/svg"
   xmlns:svg="http://www.w3.org/2000/svg"><defs
   id="defs7" /><sodipodi:namedview
   id="namedview5"
   borderopacity="0.25"
   inkscape:showpageshadow="2"
   inkscape:pageopacity="0.0"
   inkscape:pagecheckerboard="0"
   showgrid="false"
   inkscape:zoom="0.14171624"
   inkscape:cx="702.10725"
   inkscape:cy="1107.8476"
   inkscape:window-width="1512"
   inkscape:window-height="844"
   inkscape:window-x="0"
   inkscape:window-y="38"
   inkscape:window-maximized="0"
   inkscape:current-layer="Layer_1" />
<path
   opacity="1"
   d="m 409.61829,503.20053 c -75.17067,-56.66481 -147.689,-110.74548 -219.08812,-166.63439 -16.49083,-12.9082 -52.0441,-15.53377 -31.78676,-63.21949 157.62693,96.21491 313.99819,189.74729 468.63968,286.76234 95.86974,60.1461 187.17478,129.78259 295.68103,160.73812 15.79304,4.50528 28.78351,20.22789 44.08287,28.34721 47.21621,25.0598 94.58521,49.87162 142.79581,72.33458 7.5225,3.5042 19.5752,-7.0128 29.845,-8.88785 26.9012,-4.91727 54.8451,-15.42661 80.7773,-11.23566 38.2184,6.17585 53.6357,38.62019 46.2127,81.76038 -5.2793,30.68401 -12.1671,61.01901 -18.4281,91.95876 46.9005,48.73757 104.915,38.57517 175.2491,11.75215 7.7422,-27.25972 20.2446,-71.12298 32.658,-115.01697 20.1557,-71.2733 35.848,-144.74072 62.4278,-212.83969 11.4804,-29.41708 45.4115,-47.75821 73.5161,-75.43653 -1.1584,-7.92412 -3.6004,-24.6254 -5.9951,-41.00321 -74.7325,-10.27826 -73.6376,-10.49982 -87.332,-96.49287 -2.641,-16.57785 -17.605,-30.67401 -29.7283,-50.58437 15.592,-38.55725 25.1149,-81.32702 1.7194,-132.40657 -10.1922,-22.25387 0.3079,-69.75752 16.4939,-91.79308 88.2294,-120.125995 251.731,-142.621587 344.4131,-2.32529 45.7549,69.26101 31.045,172.13087 -22.5478,243.54183 -18.1381,24.16839 -40.6952,44.14526 -62.7505,67.65194 76.2404,111.88957 84.2948,243.89956 94.6605,370.32385 6.1327,74.80812 -21.5477,153.65178 -36.8519,229.96438 -10.8514,54.1132 -26.0962,107.139 -39.9711,160.4541 -29.8797,114.819 -108.363,129.097 -176.5281,111.8057 -72.0894,-18.2855 -144.7881,-34.5791 -217.9378,-45.8584 -20.0236,-3.087 -47.2683,8.9442 -63.1491,24.455 -43.0354,42.0315 -105.8435,62.1286 -124.3262,132.19 -8.7526,33.177 -11.2583,68.4322 -19.9856,101.6187 -15.4959,58.9246 -35.0409,116.531 -49.6939,175.6889 -4.4296,17.8856 -3.0862,41.6175 3.9068,58.2709 20.2656,48.2641 2.1703,111.5031 -40.7574,129.3024 -5.7743,2.3959 -13.5386,6.902 -17.7854,4.5372 -52.3188,-29.1339 -71.4604,22.5244 -97.28501,52.1206 -45.15935,51.7565 -122.73153,41.0722 -143.46888,-26.159 -4.42491,-14.3458 13.43687,-42.3021 26.78663,-57.6672 31.36546,-36.0984 72.71019,-63.1998 98.08638,-103.4457 35.65386,-56.5471 47.09964,-121.8329 44.13595,-195.7465 -3.44904,-86.0503 11.66186,-173.6927 24.08353,-259.662 7.7839,-53.8723 24.7217,-106.2005 39.3676,-158.5799 2.6525,-9.4874 16.6756,-24.1551 21.0865,-22.4204 51.2434,20.1672 72.5552,-45.5733 110.3932,-43.6225 -5.6574,-33.6912 -10.62,-63.2412 -13.0088,-77.4639 C 1108.1402,991.44889 1054.6052,946.21733 999.45341,903.63422 948.33719,864.16641 896.04969,826.51646 843.29625,789.85216 728.98896,710.41106 614.33144,631.59189 499.1733,553.72248 471.63735,535.10229 441.57744,521.19826 409.61829,503.20053 M 782.25586,691.7389 c -4.05024,-0.47914 -8.10049,-0.94761 -12.15099,-1.42235 2.44089,4.97445 4.88165,9.94705 11.69665,20.48121 32.12729,22.22427 63.62562,45.71151 96.50792,66.41878 76.53049,48.1905 153.72936,95.04553 234.68926,144.927 0,-30.06545 0,-50.64165 0,-61.94238 C 1057.172,829.20504 1007.3518,799.05422 955.7152,773.54822 899.54739,745.80402 841.6937,722.37744 782.25586,691.7389 Z"
   id="path2"
   class="fill-current"
   style="stroke-width:10.0427" />
</svg>
